<?xml version="1.0" encoding="UTF-8" standalone="no"?>
<svg
   xmlns:dc="http://purl.org/dc/elements/1.1/"
   xmlns:cc="http://creativecommons.org/ns#"
   xmlns:rdf="http://www.w3.org/1999/02/22-rdf-syntax-ns#"
   xmlns:svg="http://www.w3.org/2000/svg"
   xmlns="http://www.w3.org/2000/svg"
   id="SVGRoot"
   version="1.1"
   viewBox="0 0 100 100"
   height="100px"
   width="100px">
  <defs
     id="defs3688" />
  <metadata
     id="metadata3691">
    <rdf:RDF>
      <cc:Work
         rdf:about="">
        <dc:format>image/svg+xml</dc:format>
        <dc:type
           rdf:resource="http://purl.org/dc/dcmitype/StillImage" />
        <dc:title></dc:title>
      </cc:Work>
    </rdf:RDF>
  </metadata>
  <g
     id="layer1">
    <rect
       y="5.078125"
       x="6.25"
       height="89.84375"
       width="88.28125"
       id="rect5383"
       style="fill:none;stroke:#369f17;stroke-width:5.08900023;stroke-miterlimit:4;stroke-dasharray:none;stroke-opacity:1" />
    <g
       id="flowRoot5385"
       style="font-style:normal;font-variant:normal;font-weight:normal;font-stretch:normal;font-size:40px;line-height:1.25;font-family:Arial;-inkscape-font-specification:Arial;letter-spacing:0px;word-spacing:0px;fill:#369f17;fill-opacity:1;stroke:none"
       transform="matrix(1.96823,0,0,2.2596401,-2.0208491,-11.627457)"
       aria-label="*">
      <path
         id="path5450"
         d="m 20,26.323146 0.898437,-2.773438 q 3.105469,1.09375 4.511719,1.894531 -0.371094,-3.535156 -0.390625,-4.863281 h 2.832031 q -0.05859,1.933594 -0.449218,4.84375 2.011718,-1.015625 4.609375,-1.875 l 0.898437,2.773438 q -2.480469,0.820312 -4.863281,1.09375 1.191406,1.035156 3.359375,3.691406 l -2.34375,1.660156 q -1.132813,-1.542969 -2.675781,-4.199219 -1.445313,2.753907 -2.539063,4.199219 L 21.542969,31.108302 Q 23.808594,28.315333 24.785156,27.416896 22.265625,26.928614 20,26.323146 Z" />
    </g>
  </g>
</svg>
